<svg version="1.2" xmlns="http://www.w3.org/2000/svg" viewBox="0 0 80 80" width="80" height="80">
	<title>atmosphere-svg</title>
	<g id="Dibujo">
		<g id="Layer">
			<path id="Layer" d="m16 18h42c1.1 0 2-0.9 2-2 0-1.1-0.9-2-2-2h-42c-1.1 0-2 0.9-2 2 0 1.1 0.9 2 2 2z"/>
			<path id="Layer" d="m58 22h-39c-1.1 0-2 0.9-2 2 0 1.1 0.9 2 2 2h39c1.1 0 2-0.9 2-2 0-1.1-0.9-2-2-2z"/>
			<path id="Layer" d="m54 32c0-1.1-0.9-2-2-2h-36c-1.1 0-2 0.9-2 2 0 1.1 0.9 2 2 2h36c1.1 0 2-0.9 2-2z"/>
			<path id="Layer" d="m58 38h-33c-1.1 0-2 0.9-2 2 0 1.1 0.9 2 2 2h33c1.1 0 2-0.9 2-2 0-1.1-0.9-2-2-2z"/>
			<path id="Layer" d="m52 46h-18c-1.1 0-2 0.9-2 2 0 1.1 0.9 2 2 2h18c1.1 0 2-0.9 2-2 0-1.1-0.9-2-2-2z"/>
			<path id="Layer" d="m46 54h-12c-1.1 0-2 0.9-2 2 0 1.1 0.9 2 2 2h12c1.1 0 2-0.9 2-2 0-1.1-0.9-2-2-2z"/>
			<path id="Layer" d="m40 62h-6c-1.1 0-2 0.9-2 2 0 1.1 0.9 2 2 2h6c1.1 0 2-0.9 2-2 0-1.1-0.9-2-2-2z"/>
		</g>
	</g>
</svg>