<svg version="1.2" xmlns="http://www.w3.org/2000/svg" viewBox="0 0 80 80" width="80" height="80">
	<title>clear-svg</title>
	<g id="Dibujo">
		<path id="Layer" fill-rule="evenodd" d="m52.7 27.3c-0.8-0.8-0.8-2.1 0-2.9l2.9-2.8c0.7-0.8 2-0.8 2.8 0 0.8 0.8 0.8 2.1 0 2.8l-2.8 2.9c-0.4 0.4-0.9 0.6-1.5 0.6-0.5 0-1-0.2-1.4-0.6zm-32.7 14.7h-4c-1.1 0-2-0.9-2-2 0-1.1 0.9-2 2-2h4c1.1 0 2 0.9 2 2 0 1.1-0.9 2-2 2zm7.3 10.7c0.8 0.8 0.8 2.1 0 2.9l-2.9 2.8c-0.3 0.4-0.9 0.6-1.4 0.6-0.5 0-1-0.2-1.4-0.6-0.8-0.8-0.8-2.1 0-2.8l2.8-2.9c0.8-0.8 2.1-0.8 2.9 0zm-5.7-28.3c-0.8-0.7-0.8-2 0-2.8 0.8-0.8 2.1-0.8 2.8 0l2.9 2.8c0.8 0.8 0.8 2.1 0 2.9-0.4 0.4-0.9 0.6-1.4 0.6-0.6 0-1.1-0.2-1.5-0.6zm16.4-4.5v-4c0-1.1 0.9-2 2-2 1.1 0 2 0.9 2 2v4c0 1.1-0.9 2-2 2-1.1 0-2-0.9-2-2zm28 20c0 1.1-0.9 2-2 2h-4c-1.1 0-2-0.9-2-2 0-1.1 0.9-2 2-2h4c1.1 0 2 0.9 2 2zm-7.6 15.6c0.8 0.8 0.8 2 0 2.8-0.4 0.4-0.9 0.6-1.4 0.6-0.5 0-1-0.2-1.4-0.6l-2.8-2.8c-0.8-0.8-0.8-2.1 0-2.8 0.7-0.8 2-0.8 2.8 0zm-16.4 4.4v4c0 1.1-0.9 2-2 2-1.1 0-2-0.9-2-2v-4c0-1.1 0.9-2 2-2 1.1 0 2 0.9 2 2zm12-20c0 7.7-6.3 14-14 14-7.7 0-14-6.3-14-14 0-7.7 6.3-14 14-14 7.7 0 14 6.3 14 14zm-4 0c0-5.5-4.5-10-10-10-5.5 0-10 4.5-10 10 0 5.5 4.5 10 10 10 5.5 0 10-4.5 10-10z"/>
	</g>
</svg>