<svg version="1.2" xmlns="http://www.w3.org/2000/svg" viewBox="0 0 80 80" width="80" height="80">
	<title>clouds_few-svg</title>
	<g id="Dibujo">
		<g id="Layer">
			<path id="Layer" fill-rule="evenodd" d="m69 43c0 6.1-4.9 11-11 11h-36c-6.1 0-11-4.9-11-11 0-6.1 4.9-11 11-11 0.5 0 1.1 0.1 1.7 0.2 2.1-7.2 8.6-12.2 16.3-12.2q0.3 0 0.5 0c2.6-3.7 6.9-6 11.5-6 7.7 0 14 6.3 14 14 0 2.2-0.5 4.3-1.4 6.2 2.6 2 4.4 5.2 4.4 8.8zm-23.9-22.2c5.4 1.6 9.6 5.9 11.2 11.4 0.6-0.1 1.2-0.2 1.7-0.2q1.5 0 3 0.4c0.6-1.4 1-2.9 1-4.4 0-5.5-4.5-10-10-10-2.6 0-5.1 1-6.9 2.8zm19.9 22.2c0-3.9-3.1-7-7-7-0.3 0-0.7 0.1-1.2 0.2v1.8c0 1.1-0.9 2-2 2-1.1 0-2-0.9-2-2v-3.2c-1.1-6.3-6.4-10.8-12.8-10.8-6.4 0-11.7 4.5-12.8 10.8v3.2c0 1.1-0.9 2-2 2-1.1 0-2-0.9-2-2v-1.8c-0.5-0.1-0.9-0.2-1.2-0.2-3.9 0-7 3.1-7 7 0 3.9 3.1 7 7 7h36c3.9 0 7-3.1 7-7z"/>
			<path id="Layer" d="m52 10c1.1 0 2-0.9 2-2v-4c0-1.1-0.9-2-2-2-1.1 0-2 0.9-2 2v4c0 1.1 0.9 2 2 2z"/>
			<path id="Layer" d="m76 26h-4c-1.1 0-2 0.9-2 2 0 1.1 0.9 2 2 2h4c1.1 0 2-0.9 2-2 0-1.1-0.9-2-2-2z"/>
			<path id="Layer" d="m66.1 15.9c0.6 0 1.1-0.2 1.5-0.6l2.8-2.9c0.8-0.7 0.8-2 0-2.8-0.8-0.8-2.1-0.8-2.8 0l-2.9 2.8c-0.8 0.8-0.8 2.1 0 2.9 0.4 0.4 0.9 0.6 1.4 0.6z"/>
			<path id="Layer" d="m36.4 15.3c0.4 0.4 0.9 0.6 1.5 0.6 0.5 0 1-0.2 1.4-0.6 0.8-0.8 0.8-2.1 0-2.9l-2.9-2.8c-0.7-0.8-2-0.8-2.8 0-0.8 0.8-0.8 2.1 0 2.8z"/>
		</g>
	</g>
</svg>