<svg version="1.2" xmlns="http://www.w3.org/2000/svg" viewBox="0 0 80 80" width="80" height="80">
	<title>snow-svg</title>
	<g id="Dibujo">
		<g id="Layer">
			<path id="Layer" fill-rule="evenodd" d="m58.8 69.6c-0.2 0.2-0.3 0.3-0.5 0.3q-0.2 0-0.3-0.1l-1.8-1 0.3 1c0.1 0.3-0.1 0.6-0.4 0.7q-0.1 0-0.2 0c-0.2 0-0.4-0.2-0.5-0.4l-0.6-2.1-1.5-0.9 0.5 1.8c0 0.3-0.1 0.5-0.3 0.6q-0.1 0.1-0.3 0.1-0.2 0-0.3-0.1l-1.4-1v1.4l1.5 1.5c0.2 0.3 0.2 0.6 0 0.8q-0.2 0.2-0.4 0.2-0.2 0-0.4-0.2l-0.7-0.7v2c0 0.3-0.3 0.6-0.6 0.6-0.3 0-0.6-0.3-0.6-0.6v-2l-0.7 0.7c-0.2 0.3-0.6 0.3-0.8 0-0.2-0.2-0.2-0.5 0-0.8l1.5-1.5v-1.5l-1.4 1.1c-0.1 0.2-0.4 0.2-0.6 0.1-0.2-0.2-0.3-0.4-0.3-0.6l0.3-1.8-1.3 0.8-0.6 2.1c0 0.2-0.3 0.4-0.5 0.4q-0.1 0-0.2 0c-0.3-0.1-0.4-0.4-0.4-0.7l0.3-1-1.8 1q-0.1 0.1-0.2 0.1c-0.2 0-0.4-0.1-0.5-0.3-0.2-0.3-0.1-0.6 0.2-0.8l1.7-1-1-0.3c-0.3-0.1-0.4-0.4-0.4-0.7 0.1-0.3 0.4-0.5 0.7-0.4l2.1 0.6 1.3-0.7-1.6-0.7c-0.3-0.1-0.4-0.3-0.4-0.6 0-0.2 0.2-0.4 0.4-0.5l1.9-0.5-1.6-0.9-2.1 0.6q0 0-0.1 0c-0.3 0-0.5-0.2-0.6-0.4 0-0.3 0.1-0.6 0.4-0.7l1-0.3-1.7-1c-0.3-0.2-0.4-0.5-0.2-0.8 0.1-0.2 0.5-0.3 0.7-0.2l1.8 1-0.3-1c0-0.3 0.1-0.6 0.4-0.7 0.3 0 0.6 0.1 0.7 0.4l0.6 2.1 1.5 0.9-0.5-1.8c0-0.3 0.1-0.5 0.3-0.6 0.2-0.2 0.4-0.2 0.6 0l1.4 1.1v-1.5l-1.5-1.5c-0.2-0.3-0.2-0.6 0-0.8 0.2-0.3 0.6-0.3 0.8 0l0.7 0.7v-2c0-0.3 0.3-0.6 0.6-0.6 0.3 0 0.6 0.3 0.6 0.6v2l0.7-0.7c0.2-0.3 0.6-0.3 0.8 0 0.2 0.2 0.2 0.5 0 0.8l-1.5 1.5v1.5l1.4-1.1c0.2-0.2 0.4-0.2 0.6-0.1 0.2 0.2 0.3 0.4 0.3 0.6l-0.2 1.8 1.2-0.8 0.6-2.1c0.1-0.3 0.4-0.4 0.7-0.4 0.3 0.1 0.5 0.4 0.4 0.7l-0.3 1 1.8-1c0.2-0.1 0.6 0 0.8 0.2 0.1 0.3 0 0.6-0.3 0.8l-1.7 1 1 0.3c0.3 0.1 0.5 0.4 0.4 0.7-0.1 0.2-0.3 0.4-0.6 0.4q0 0-0.1 0l-2.1-0.6-1.3 0.7 1.7 0.7c0.2 0.1 0.3 0.3 0.3 0.6 0 0.2-0.2 0.4-0.4 0.5l-1.9 0.5 1.6 0.9 2.1-0.6c0.3-0.1 0.6 0.1 0.7 0.4 0.1 0.3-0.1 0.6-0.4 0.7l-1 0.3 1.7 1c0.3 0.2 0.4 0.5 0.3 0.8zm-5.9-5.1l-0.9 0.6 0.5 0.2 1.3-0.4zm-1.4-1.5v1.1l0.8-0.5 0.2-1.3zm-1.5 0.7l0.4 0.3v-1l-0.8-0.6zm-1 1.7l0.8-0.5-0.4-0.2-1.3 0.3zm1.4 1.5v-1l-0.9 0.5-0.1 1.3zm1.5-0.8l-0.4-0.2v1l0.8 0.6z"/>
			<path id="Layer" fill-rule="evenodd" d="m43.2 58.3c-0.1 0.2-0.3 0.3-0.5 0.3q-0.2 0-0.3 0l-1.8-1.1 0.3 1c0.1 0.3-0.1 0.7-0.4 0.7q-0.1 0.1-0.1 0.1c-0.3 0-0.5-0.2-0.6-0.5l-0.5-2.1-1.6-0.9 0.5 1.9c0.1 0.2 0 0.5-0.2 0.6q-0.2 0.1-0.3 0.1-0.2 0-0.4-0.1l-1.4-1.1v1.5l1.5 1.5c0.2 0.2 0.2 0.6 0 0.8q-0.1 0.2-0.4 0.2-0.2 0-0.4-0.2l-0.7-0.7v2c0 0.3-0.3 0.6-0.6 0.6-0.3 0-0.5-0.3-0.5-0.6v-2l-0.8 0.7c-0.2 0.2-0.6 0.2-0.8 0-0.2-0.2-0.2-0.6 0-0.8l1.6-1.5v-1.5l-1.5 1.1c-0.1 0.1-0.4 0.1-0.6 0-0.2-0.1-0.3-0.3-0.3-0.5l0.3-1.8-1.3 0.7-0.6 2.1c0 0.3-0.3 0.5-0.5 0.5q-0.1 0-0.2-0.1c-0.3 0-0.4-0.4-0.4-0.7l0.3-1-1.8 1.1q-0.1 0-0.2 0c-0.2 0-0.4-0.1-0.5-0.3-0.2-0.2-0.1-0.6 0.2-0.7l1.7-1-1-0.3c-0.3-0.1-0.4-0.4-0.4-0.7 0.1-0.3 0.4-0.5 0.7-0.4l2.1 0.6 1.3-0.8-1.6-0.7c-0.3-0.1-0.4-0.3-0.4-0.5 0-0.3 0.2-0.5 0.4-0.5l1.9-0.5-1.6-0.9-2.1 0.5q0 0-0.1 0c-0.3 0-0.5-0.1-0.6-0.4 0-0.3 0.1-0.6 0.4-0.7l1-0.2-1.7-1.1c-0.3-0.1-0.4-0.5-0.2-0.7 0.1-0.3 0.5-0.4 0.7-0.2l1.8 1-0.3-1c0-0.3 0.1-0.6 0.4-0.7 0.3-0.1 0.7 0.1 0.7 0.4l0.6 2.1 1.6 0.9-0.5-1.9c-0.1-0.2 0-0.5 0.2-0.6 0.2-0.1 0.5-0.1 0.6 0l1.5 1.1v-1.5l-1.6-1.5c-0.2-0.2-0.2-0.6 0-0.8 0.2-0.2 0.6-0.2 0.8 0l0.8 0.7v-2c0-0.3 0.2-0.6 0.5-0.6 0.3 0 0.6 0.3 0.6 0.6v2l0.7-0.7c0.2-0.2 0.6-0.2 0.8 0 0.2 0.2 0.2 0.6 0 0.8l-1.5 1.5v1.5l1.4-1.1c0.2-0.1 0.4-0.1 0.6 0 0.2 0.1 0.3 0.3 0.3 0.6l-0.2 1.7 1.3-0.7 0.5-2.1c0.1-0.3 0.4-0.5 0.7-0.4 0.3 0.1 0.5 0.4 0.4 0.7l-0.3 1 1.8-1c0.3-0.2 0.6-0.1 0.8 0.2 0.1 0.2 0 0.6-0.2 0.7l-1.8 1.1 1 0.2c0.3 0.1 0.5 0.4 0.4 0.7-0.1 0.3-0.3 0.4-0.5 0.4q-0.1 0-0.2 0l-2.1-0.5-1.2 0.7 1.6 0.7c0.2 0.1 0.4 0.3 0.3 0.5 0 0.3-0.1 0.5-0.4 0.6l-1.8 0.5 1.5 0.9 2.1-0.6c0.3-0.1 0.6 0.1 0.7 0.4 0.1 0.3-0.1 0.6-0.4 0.7l-1 0.3 1.8 1c0.2 0.1 0.3 0.5 0.2 0.7zm-5.9-5l-0.8 0.5 0.4 0.3 1.3-0.4zm-1.4-1.5v1l0.9-0.5 0.1-1.3zm-1.5 0.8l0.4 0.2v-1l-0.8-0.6zm-1 1.8l0.9-0.5-0.5-0.3-1.3 0.4zm1.4 1.5v-1l-0.8 0.5-0.2 1.2zm1.5-0.7l-0.4-0.3v1l0.8 0.6z"/>
			<path id="Layer" d="m58 32c-0.5 0-1.1 0.1-1.7 0.2-2.1-7.2-8.6-12.2-16.3-12.2-7.7 0-14.2 5-16.3 12.2-0.6-0.1-1.2-0.2-1.7-0.2-6.1 0-11 4.9-11 11 0 6.1 4.9 11 11 11 1.1 0 2-0.9 2-2 0-1.1-0.9-2-2-2-3.9 0-7-3.1-7-7 0-3.9 3.1-7 7-7 0.3 0 0.7 0.1 1.2 0.2v1.8c0 1.1 0.9 2 2 2 1.1 0 2-0.9 2-2v-3.2c1.1-6.3 6.4-10.8 12.8-10.8 6.4 0 11.7 4.5 12.8 10.8v3.2c0 1.1 0.9 2 2 2 1.1 0 2-0.9 2-2v-1.8c0.5-0.1 0.9-0.2 1.2-0.2 3.9 0 7 3.1 7 7 0 3.9-3.1 7-7 7-1.1 0-2 0.9-2 2 0 1.1 0.9 2 2 2 6.1 0 11-4.9 11-11 0-6.1-4.9-11-11-11z"/>
		</g>
	</g>
</svg>