<svg version="1.2" xmlns="http://www.w3.org/2000/svg" viewBox="0 0 80 80" width="80" height="80">
	<title>thunderstorm-svg</title>
	<g id="Dibujo">
		<path id="Layer" fill-rule="evenodd" d="m69 43c0 6.1-4.9 11-11 11h-9.9l-1.4 2h2.3c0.7 0 1.4 0.4 1.8 1.1 0.3 0.6 0.3 1.4-0.1 2l-4 6c-0.4 0.6-1.1 0.9-1.7 0.9q-0.6 0-1.1-0.3c-0.9-0.6-1.2-1.9-0.6-2.8l2-2.9h-2.3c-0.7 0-1.4-0.4-1.8-1.1-0.3-0.6-0.3-1.4 0.1-2l2-2.9h-5.2l-3.4 5h2.3c0.7 0 1.4 0.4 1.8 1.1 0.3 0.6 0.3 1.4-0.1 2l-6 9c-0.4 0.6-1.1 0.9-1.7 0.9q-0.6 0-1.1-0.3c-0.9-0.6-1.2-1.9-0.6-2.8l4-5.9h-2.3c-0.7 0-1.4-0.4-1.8-1.1-0.3-0.6-0.3-1.4 0.1-2l4-5.9h-11.3c-6.1 0-11-4.9-11-11 0-6.1 4.9-11 11-11 0.5 0 1.1 0.1 1.7 0.2 2.1-7.2 8.6-12.2 16.3-12.2 7.7 0 14.2 5 16.3 12.2 0.6-0.1 1.2-0.2 1.7-0.2 6.1 0 11 4.9 11 11zm-4 0c0-3.9-3.1-7-7-7-0.3 0-0.7 0.1-1.2 0.2v1.8c0 1.1-0.9 2-2 2-1.1 0-2-0.9-2-2v-3.2c-1.1-6.3-6.4-10.8-12.8-10.8-6.4 0-11.7 4.5-12.8 10.8v3.2c0 1.1-0.9 2-2 2-1.1 0-2-0.9-2-2v-1.8c-0.5-0.1-0.9-0.2-1.2-0.2-3.9 0-7 3.1-7 7 0 3.9 3.1 7 7 7h36c3.9 0 7-3.1 7-7z"/>
	</g>
</svg>