<svg version="1.2" xmlns="http://www.w3.org/2000/svg" viewBox="0 0 80 80" width="80" height="80">
	<title>unknown-svg</title>
	<g id="Dibujo">
		<g id="Layer">
			<path id="Layer" fill-rule="evenodd" d="m45 55c0 2.8-2.2 5-5 5-2.8 0-5-2.2-5-5 0-2 1.2-3.8 3-4.6v-11.4c0-1.1 0.9-2 2-2 1.1 0 2 0.9 2 2v11.4c1.8 0.8 3 2.6 3 4.6zm-4 0c0-0.6-0.4-1-1-1-0.6 0-1 0.4-1 1 0 0.6 0.4 1 1 1 0.6 0 1-0.4 1-1z"/>
			<path id="Layer" fill-rule="evenodd" d="m51 55c0 6.1-4.9 11-11 11-6.1 0-11-4.9-11-11 0-2.8 1.1-5.5 3-7.5v-25.5c0-4.4 3.6-8 8-8 4.4 0 8 3.6 8 8v25.5c1.9 2 3 4.7 3 7.5zm-4 0c0-2-0.8-3.9-2.3-5.2-0.5-0.4-0.7-0.9-0.7-1.5v-26.3c0-2.2-1.8-4-4-4-2.2 0-4 1.8-4 4v26.3c0 0.6-0.3 1.1-0.7 1.5-1.5 1.3-2.3 3.2-2.3 5.2 0 3.9 3.1 7 7 7 3.9 0 7-3.1 7-7z"/>
		</g>
	</g>
</svg>